<svg width="554" height="367" viewBox="0 0 554 367" fill="none" xmlns="http://www.w3.org/2000/svg" >
<g clip-path="url(#clip0_18_308)">
<path d="M418.449 292.26C416.932 281.801 416.531 271.204 417.254 260.656L418.449 243.2C411.864 256.613 413.352 274.266 418.449 292.26V292.26Z" fill="#CACACA"/>
<path d="M423.583 295.18C422.853 288.939 422.661 282.644 423.008 276.368L423.583 265.978C420.415 273.961 421.131 284.47 423.583 295.18Z" fill="#CACACA"/>
<path d="M446.407 308.03V313.871C446.404 314.335 446.223 314.779 445.903 315.107C445.582 315.435 445.148 315.62 444.695 315.623H441.842C441.767 315.623 441.693 315.637 441.624 315.667C441.554 315.696 441.491 315.739 441.438 315.793C441.385 315.848 441.343 315.912 441.315 315.983C441.286 316.054 441.272 316.13 441.272 316.207V364.099C441.27 364.563 441.089 365.007 440.768 365.335C440.448 365.663 440.014 365.848 439.56 365.851H404.759C404.305 365.85 403.87 365.666 403.549 365.337C403.228 365.009 403.048 364.563 403.047 364.099V316.207C403.047 316.052 402.987 315.904 402.88 315.794C402.773 315.685 402.628 315.623 402.477 315.623H399.054C398.6 315.622 398.165 315.438 397.844 315.109C397.523 314.781 397.343 314.335 397.342 313.871V308.03C397.342 307.8 397.386 307.572 397.472 307.359C397.558 307.147 397.684 306.953 397.843 306.791C398.002 306.628 398.191 306.499 398.398 306.411C398.606 306.323 398.829 306.278 399.054 306.278H444.695C445.149 306.279 445.583 306.465 445.904 306.793C446.224 307.121 446.405 307.566 446.407 308.03Z" fill="#F2F2F2"/>
<path d="M441.323 316.849H403.099V318.601H441.323V316.849Z" fill="#E6E6E6"/>
<path d="M441.272 342.632C428.481 348.05 415.551 348.11 402.477 342.632V330.288C415.063 325.961 428.686 325.961 441.272 330.288V342.632Z" fill="#E6E6E6"/>
<path d="M257.577 146.234C269.045 146.234 278.341 136.717 278.341 124.977C278.341 113.237 269.045 103.72 257.577 103.72C246.109 103.72 236.813 113.237 236.813 124.977C236.813 136.717 246.109 146.234 257.577 146.234Z" fill="#2F2E41"/>
<path d="M263.362 104.305C266.956 104.306 270.487 105.261 273.612 107.077C276.737 108.894 279.349 111.509 281.191 114.668C283.033 117.826 284.042 121.42 284.121 125.098C284.2 128.776 283.346 132.412 281.641 135.651C283.441 133.345 284.752 130.68 285.491 127.827C286.23 124.974 286.38 121.994 285.932 119.078C285.483 116.163 284.447 113.374 282.888 110.891C281.328 108.408 279.281 106.285 276.876 104.657C274.471 103.028 271.761 101.931 268.919 101.434C266.077 100.937 263.165 101.052 260.368 101.771C257.572 102.49 254.952 103.797 252.676 105.61C250.401 107.423 248.519 109.701 247.151 112.299C249.092 109.804 251.557 107.79 254.364 106.406C257.171 105.022 260.247 104.304 263.362 104.305Z" fill="#2F2E41"/>
<path d="M218.776 124.932C252.463 124.932 279.771 96.976 279.771 62.4904C279.771 28.0048 252.463 0.048645 218.776 0.048645C185.089 0.048645 157.781 28.0048 157.781 62.4904C157.781 96.976 185.089 124.932 218.776 124.932Z" fill="#2F2E41"/>
<path d="M170.905 23.7482C181.415 11.648 196.106 4.20132 211.877 2.97978C227.649 1.75824 243.267 6.85742 255.436 17.2011C254.937 16.7158 254.444 16.2264 253.926 15.7548C241.834 4.76029 225.973 -0.86832 209.828 0.106551C193.684 1.08142 178.579 8.57996 167.834 20.9534C157.089 33.3269 151.583 49.5623 152.529 66.0899C153.474 82.6175 160.793 98.0843 172.875 109.089C173.393 109.561 173.925 110.005 174.455 110.456C162.995 99.2958 156.219 84.0144 155.556 67.8367C154.894 51.6591 160.397 35.8508 170.905 23.7482Z" fill="#2F2E41"/>
<path d="M218.259 124.403C239.955 124.403 257.544 106.397 257.544 84.1862C257.544 61.9751 239.955 43.9695 218.259 43.9695C196.562 43.9695 178.974 61.9751 178.974 84.1862C178.974 106.397 196.562 124.403 218.259 124.403Z" fill="#FFB8B8"/>
<path d="M238.327 135.321L196.287 137.255C196.287 137.255 199.796 159.512 177.052 161.629C154.308 163.746 133.631 157.396 125.361 173.271C117.09 189.146 120.655 245.672 120.655 245.672C120.655 245.672 136.162 302.822 148.568 311.289C160.974 319.756 269.525 308.114 269.525 308.114L314.954 249.392L313.415 204.105C312.612 180.457 291.521 162.702 268.805 167.078C268.359 167.164 267.909 167.256 267.457 167.356C267.457 167.356 262.467 163.537 248.774 156.529C240.401 152.243 238.327 135.321 238.327 135.321Z" fill="#E5E5E5"/>
<path d="M147.071 160.571C147.071 160.571 157.063 179.13 152.928 205.589C148.792 232.047 166.143 288.006 166.143 288.006L178.549 284.831C178.549 284.831 170.278 229.797 172.346 217.097C174.414 204.397 174.984 166.921 164.646 160.571C154.308 154.221 147.071 160.571 147.071 160.571Z" fill="#2F2E41"/>
<path d="M266.73 170.302L271.076 287.477L279.346 292.768C279.346 292.768 291.235 164.181 285.032 164.181H272.411C271.664 164.181 270.924 164.331 270.234 164.624C269.544 164.917 268.917 165.345 268.389 165.886C267.86 166.427 267.441 167.069 267.156 167.775C266.87 168.482 266.723 169.239 266.723 170.004C266.723 170.103 266.725 170.203 266.73 170.302Z" fill="#2F2E41"/>
<path d="M171.829 285.36C174.684 285.36 176.998 282.991 176.998 280.068C176.998 277.146 174.684 274.777 171.829 274.777C168.974 274.777 166.66 277.146 166.66 280.068C166.66 282.991 168.974 285.36 171.829 285.36Z" fill="#D01A1A"/>
<path d="M275.211 290.652C278.066 290.652 280.38 288.282 280.38 285.36C280.38 282.437 278.066 280.068 275.211 280.068C272.356 280.068 270.042 282.437 270.042 285.36C270.042 288.282 272.356 290.652 275.211 290.652Z" fill="#D01A1A"/>
<path d="M184.66 33.9149V74.1317H193.758L205.336 61.4316L203.786 74.1317H244.001L241.52 61.4316L246.482 74.1317H252.892V33.9149H184.66Z" fill="#2F2E41"/>
<path d="M178.457 81.5404C180.17 81.5404 181.558 78.9343 181.558 75.7195C181.558 72.5048 180.17 69.8987 178.457 69.8987C176.744 69.8987 175.356 72.5048 175.356 75.7195C175.356 78.9343 176.744 81.5404 178.457 81.5404Z" fill="#FFB8B8"/>
<path d="M258.061 81.5404C259.774 81.5404 261.162 78.9343 261.162 75.7195C261.162 72.5048 259.774 69.8987 258.061 69.8987C256.348 69.8987 254.959 72.5048 254.959 75.7195C254.959 78.9343 256.348 81.5404 258.061 81.5404Z" fill="#FFB8B8"/>
<path d="M344.107 355.36V358.905C344.109 359.878 343.933 360.843 343.588 361.749C343.435 362.154 343.25 362.544 343.035 362.918C342.355 364.086 341.39 365.053 340.235 365.725C339.08 366.397 337.774 366.749 336.445 366.749H81.6817C80.3532 366.749 79.0474 366.397 77.8922 365.725C76.737 365.053 75.7722 364.086 75.0922 362.918C74.8771 362.544 74.6921 362.154 74.5388 361.749C74.1938 360.843 74.0177 359.878 74.0197 358.905V355.36C74.0194 354.33 74.2173 353.31 74.602 352.359C74.9867 351.407 75.5507 350.543 76.2618 349.815C76.9729 349.086 77.8172 348.508 78.7464 348.114C79.6757 347.72 80.6717 347.517 81.6776 347.516H96.3668V345.863C96.3667 345.821 96.3749 345.778 96.3908 345.738C96.4068 345.699 96.4302 345.663 96.4598 345.632C96.4894 345.602 96.5245 345.578 96.5632 345.561C96.6018 345.545 96.6433 345.536 96.6852 345.536H104.348C104.433 345.536 104.514 345.57 104.574 345.632C104.634 345.693 104.668 345.776 104.668 345.862V347.516H109.454V345.863C109.454 345.821 109.462 345.778 109.478 345.738C109.494 345.699 109.518 345.663 109.547 345.632C109.577 345.602 109.612 345.578 109.651 345.561C109.689 345.545 109.731 345.536 109.773 345.536H117.436C117.52 345.536 117.602 345.571 117.662 345.632C117.721 345.693 117.755 345.776 117.755 345.862V347.516H122.548V345.863C122.548 345.821 122.556 345.778 122.572 345.738C122.588 345.699 122.611 345.663 122.641 345.632C122.67 345.602 122.705 345.578 122.744 345.561C122.783 345.545 122.824 345.536 122.866 345.536H130.529C130.614 345.536 130.695 345.571 130.755 345.632C130.815 345.693 130.849 345.776 130.849 345.862V347.516H135.635V345.863C135.635 345.821 135.643 345.778 135.659 345.738C135.675 345.699 135.699 345.663 135.728 345.632C135.758 345.602 135.793 345.578 135.832 345.561C135.87 345.545 135.912 345.536 135.954 345.536H143.617C143.701 345.536 143.783 345.571 143.843 345.632C143.902 345.693 143.936 345.776 143.936 345.862V347.516H148.723V345.863C148.723 345.821 148.731 345.778 148.747 345.738C148.763 345.699 148.786 345.663 148.816 345.632C148.846 345.602 148.881 345.578 148.919 345.561C148.958 345.545 148.999 345.536 149.041 345.536H156.704C156.789 345.536 156.87 345.571 156.93 345.632C156.99 345.693 157.024 345.776 157.024 345.862V347.516H161.816V345.864C161.816 345.821 161.824 345.778 161.84 345.738C161.856 345.699 161.88 345.663 161.909 345.632C161.939 345.602 161.974 345.578 162.013 345.561C162.051 345.545 162.093 345.537 162.135 345.536H169.798C169.882 345.536 169.964 345.571 170.023 345.632C170.083 345.693 170.117 345.776 170.117 345.862V347.516H174.904V345.864C174.904 345.821 174.912 345.778 174.928 345.738C174.944 345.699 174.967 345.663 174.997 345.632C175.026 345.602 175.062 345.578 175.1 345.562C175.139 345.545 175.18 345.537 175.222 345.536H235.242C235.283 345.536 235.325 345.545 235.364 345.561C235.402 345.577 235.438 345.601 235.467 345.632C235.497 345.662 235.521 345.698 235.537 345.738C235.553 345.777 235.561 345.82 235.561 345.862V347.516H240.353V345.864C240.353 345.821 240.362 345.778 240.377 345.739C240.393 345.699 240.417 345.663 240.446 345.632C240.476 345.602 240.511 345.578 240.55 345.562C240.589 345.545 240.63 345.537 240.672 345.536H248.335C248.419 345.537 248.5 345.572 248.56 345.633C248.62 345.694 248.654 345.777 248.654 345.864V347.516H253.441V345.864C253.441 345.821 253.449 345.778 253.465 345.739C253.481 345.699 253.505 345.663 253.534 345.632C253.564 345.602 253.599 345.578 253.637 345.562C253.676 345.545 253.718 345.537 253.759 345.536H261.423C261.464 345.536 261.506 345.545 261.545 345.561C261.583 345.577 261.619 345.601 261.648 345.632C261.678 345.662 261.701 345.698 261.718 345.738C261.734 345.777 261.742 345.82 261.742 345.862V347.516H266.529V345.864C266.529 345.821 266.537 345.778 266.553 345.739C266.569 345.699 266.592 345.663 266.622 345.632C266.651 345.602 266.686 345.578 266.725 345.562C266.764 345.545 266.805 345.537 266.847 345.536H274.51C274.552 345.536 274.594 345.545 274.632 345.561C274.671 345.577 274.706 345.601 274.736 345.632C274.766 345.662 274.789 345.698 274.805 345.738C274.821 345.777 274.83 345.82 274.83 345.862V347.516H279.622V345.864C279.622 345.821 279.63 345.778 279.646 345.739C279.662 345.699 279.685 345.663 279.715 345.632C279.745 345.602 279.78 345.578 279.818 345.562C279.857 345.545 279.899 345.537 279.94 345.536H287.603C287.687 345.538 287.767 345.573 287.826 345.634C287.885 345.695 287.918 345.778 287.917 345.864V347.516H292.71V345.864C292.71 345.821 292.718 345.778 292.734 345.739C292.75 345.699 292.773 345.663 292.803 345.632C292.832 345.602 292.867 345.578 292.906 345.562C292.945 345.545 292.986 345.537 293.028 345.536H300.691C300.733 345.536 300.774 345.545 300.813 345.561C300.852 345.577 300.887 345.601 300.917 345.632C300.946 345.662 300.97 345.698 300.986 345.738C301.002 345.777 301.011 345.82 301.011 345.862V347.516H305.797V345.864C305.797 345.821 305.805 345.778 305.821 345.739C305.837 345.699 305.861 345.663 305.89 345.633C305.92 345.602 305.955 345.578 305.994 345.562C306.032 345.545 306.074 345.537 306.116 345.536H313.779C313.821 345.536 313.862 345.545 313.901 345.561C313.94 345.577 313.975 345.601 314.004 345.632C314.034 345.662 314.058 345.698 314.074 345.738C314.09 345.777 314.098 345.82 314.098 345.862V347.516H336.445C338.477 347.516 340.425 348.341 341.862 349.812C343.299 351.282 344.107 353.276 344.107 355.356L344.107 355.36Z" fill="#3F3D56"/>
<path d="M554 365.835H0V367.003H554V365.835Z" fill="#3F3D56"/>
<path d="M323.593 206.058H90.2274C89.3839 206.058 88.5486 206.228 87.7693 206.559C86.9901 206.889 86.282 207.373 85.6855 207.984C85.0891 208.595 84.6159 209.32 84.2931 210.117C83.9703 210.915 83.8042 211.77 83.8042 212.634V345.744C83.8042 347.488 84.4809 349.161 85.6855 350.394C86.8901 351.627 88.5238 352.32 90.2274 352.32H323.593C325.297 352.32 326.93 351.627 328.135 350.394C329.34 349.161 330.016 347.488 330.016 345.744V212.634C330.016 210.89 329.34 209.217 328.135 207.984C326.93 206.751 325.297 206.058 323.593 206.058Z" fill="#3F3D56"/>
<path d="M207.097 267.131C214.974 267.131 221.36 260.594 221.36 252.53C221.36 244.466 214.974 237.929 207.097 237.929C199.22 237.929 192.834 244.466 192.834 252.53C192.834 260.594 199.22 267.131 207.097 267.131Z" fill="#D01A1A"/>
<path d="M295.392 156.068L367.394 81.7757H401.387V80.6076H366.918L366.751 80.7811L294.581 155.247L295.392 156.068Z" fill="white"/>
<path d="M526.33 51.2747H442.907V58.8847H526.33V51.2747Z" fill="white"/>
<path d="M432.74 63.6966H415.079V45.6171H432.74V63.6966ZM416.221 62.5285H431.599V46.7852H416.22L416.221 62.5285Z" fill="white"/>
<path d="M526.33 76.6414H442.907V84.2514H526.33V76.6414Z" fill="white"/>
<path d="M432.74 89.0633H415.079V70.9841H432.74V89.0633ZM416.221 87.8952H431.599V72.1522H416.22L416.221 87.8952Z" fill="white"/>
<path d="M526.33 102.008H442.907V109.618H526.33V102.008Z" fill="white"/>
<path d="M432.74 114.43H415.079V96.3506H432.74V114.43ZM416.221 113.262H431.599V97.5187H416.22L416.221 113.262Z" fill="white"/>
</g>
<defs>
<clipPath id="clip0_18_308">
<rect width="554" height="367.003" fill="white" />
</clipPath>
</defs>
</svg>
