<svg width="691" height="453" viewBox="0 0 691 453" fill="none" xmlns="http://www.w3.org/2000/svg">
<g clip-path="url(#clip0_18_328)">
<path d="M341.947 76.9122C353.525 76.9122 362.91 67.5271 362.91 55.9499C362.91 44.3727 353.525 34.9875 341.947 34.9875C330.37 34.9875 320.985 44.3727 320.985 55.9499C320.985 67.5271 330.37 76.9122 341.947 76.9122Z" fill="#FD6584"/>
<path d="M388.863 46.0239C388.271 44.0854 387.126 42.3622 385.568 41.0663C384.01 39.7704 382.107 38.9585 380.093 38.7304C380.046 38.7265 379.999 38.7265 379.952 38.7304C379.895 38.7128 379.838 38.6997 379.779 38.6912C372.76 37.7805 364.957 39.9944 359.705 44.8148C357.755 46.5761 356.196 48.7263 355.127 51.1269C354.154 49.797 352.871 48.7245 351.389 48.0022C349.908 47.2799 348.272 46.9296 346.625 46.9817C344.5 47.1221 342.471 47.9144 340.813 49.2505C339.155 50.5867 337.95 52.4016 337.361 54.4478C337.296 54.6978 337.314 54.962 337.412 55.2011C337.509 55.4402 337.682 55.6413 337.903 55.7746C338.534 56.3147 339.285 56.6968 340.093 56.8894C341.828 57.2584 343.579 57.596 345.33 57.9022C348.753 58.4989 352.194 58.983 355.653 59.3546C357.938 59.598 360.228 59.7916 362.523 59.9356C367.265 60.2339 372.03 60.3046 376.78 60.1554C379.135 60.0769 381.396 59.9984 383.548 58.9621C385.115 58.1912 386.455 57.0249 387.434 55.5783C388.356 54.1869 388.961 52.6104 389.208 50.9596C389.455 49.3089 389.337 47.6241 388.863 46.0239Z" fill="#E6E6E6"/>
<path d="M345.738 76.5637C345.698 75.6853 345.551 74.8152 345.298 73.9729C344.704 72.0347 343.557 70.312 341.998 69.0164C340.439 67.7207 338.535 66.9085 336.521 66.6795C336.477 66.6756 336.432 66.6756 336.388 66.6795C336.328 66.6627 336.268 66.6496 336.207 66.6402C332.322 66.1644 328.381 66.5696 324.674 67.8257C318.974 69.7335 313.973 73.5803 311.563 79.076C310.589 77.7452 309.304 76.6722 307.821 75.9499C306.338 75.2276 304.701 74.8778 303.053 74.9307C300.928 75.0712 298.899 75.8635 297.241 77.1996C295.583 78.5357 294.378 80.3506 293.789 82.3969C293.728 82.6469 293.747 82.9098 293.845 83.1481C293.942 83.3864 294.112 83.5878 294.331 83.7237C294.963 84.2622 295.713 84.6441 296.521 84.8385C298.264 85.2075 300.007 85.5451 301.765 85.8513C305.188 86.4479 308.627 86.9321 312.081 87.3037C319.099 88.0571 326.161 88.3246 333.216 88.1044C335.563 88.0259 337.832 87.9474 339.983 86.9111C341.548 86.1399 342.885 84.9736 343.862 83.5274C345.238 81.4766 345.897 79.0283 345.738 76.5637Z" fill="#E6E6E6"/>
<path d="M618.751 330.922C619.052 345.215 617.079 359.465 612.907 373.138C612.761 373.635 612.586 374.132 612.411 374.628H526.401C527.63 368.574 529.582 362.688 532.215 357.099C539.372 341.907 551.058 328.906 562.599 315.993C578.492 298.201 594.005 280.555 596.459 257.416C602.759 267.02 607.787 277.4 611.418 288.297C606.973 289.943 602.893 292.445 599.41 295.659C598.446 296.565 597.423 297.88 597.92 299.136C598.387 300.188 599.673 300.538 600.812 300.772C603.558 301.298 606.305 301.824 609.051 302.32C611.213 302.758 613.404 303.168 615.595 303.577C617.521 312.57 618.578 321.727 618.751 330.922Z" fill="#F2F2F2"/>
<path d="M691 321.456C677.21 329.841 668.446 342.813 661.288 357.333C655.059 358.752 649.309 361.774 644.606 366.097C643.613 367.003 642.59 368.318 643.116 369.574C643.554 370.626 644.869 370.977 646.008 371.21C648.725 371.736 651.501 372.262 654.218 372.759C653.955 373.372 653.692 374.015 653.429 374.628H562.277C566.415 369.048 570.997 363.811 575.979 358.969C577.06 357.888 578.17 356.865 579.31 355.814C590.929 345.313 604.271 336.892 618.751 330.922C641.56 321.387 666.504 318.119 691 321.456Z" fill="#F2F2F2"/>
<path d="M577.469 374.628H496.309C495.866 368.129 495.905 361.606 496.426 355.113C499.669 315 521.493 276.786 554.418 253.648C550.211 268.635 552.373 283.535 556.756 298.493C556.142 298.698 555.528 298.873 554.973 299.107C550.529 300.753 546.449 303.254 542.966 306.469C542.002 307.375 540.979 308.689 541.476 309.946C541.914 310.997 543.229 311.348 544.368 311.582C547.114 312.108 549.861 312.633 552.578 313.13C554.769 313.568 556.96 313.977 559.151 314.416C560.174 314.591 561.196 314.795 562.219 315C562.365 315.35 562.452 315.672 562.599 315.993C567.74 330.163 573.35 344.449 575.979 358.969C576.63 362.613 577.079 366.29 577.323 369.983C577.411 371.532 577.469 373.08 577.469 374.628Z" fill="#F2F2F2"/>
<path d="M135.139 330.922C135.44 345.215 133.467 359.465 129.295 373.138C129.149 373.635 128.974 374.132 128.799 374.628H42.7887C44.0182 368.574 45.9702 362.688 48.6027 357.099C55.7603 341.907 67.4465 328.906 78.9866 315.993C94.8797 298.201 110.393 280.555 112.847 257.416C119.147 267.02 124.175 277.4 127.805 288.297C123.361 289.943 119.281 292.445 115.798 295.659C114.834 296.565 113.811 297.88 114.308 299.136C114.775 300.188 116.061 300.538 117.2 300.772C119.946 301.298 122.693 301.824 125.439 302.32C127.601 302.758 129.792 303.168 131.983 303.577C133.909 312.57 134.966 321.727 135.139 330.922Z" fill="#F2F2F2"/>
<path d="M207.388 321.456C193.598 329.841 184.834 342.813 177.676 357.333C171.447 358.752 165.697 361.774 160.994 366.097C160.001 367.003 158.978 368.318 159.504 369.574C159.942 370.626 161.257 370.977 162.396 371.21C165.113 371.736 167.889 372.262 170.606 372.759C170.343 373.372 170.08 374.015 169.817 374.628H78.6653C82.8031 369.048 87.3854 363.811 92.3673 358.969C93.4482 357.888 94.5584 356.865 95.6979 355.814C107.317 345.313 120.659 336.892 135.139 330.922C157.948 321.387 182.892 318.119 207.388 321.456Z" fill="#F2F2F2"/>
<path d="M93.8573 374.628H12.697C12.2538 368.129 12.2929 361.606 12.814 355.113C16.0568 315 37.8806 276.786 70.8063 253.648C66.5993 268.635 68.7612 283.535 73.1435 298.493C72.5301 298.698 71.9165 298.873 71.3614 299.107C66.9166 300.753 62.8374 303.254 59.354 306.469C58.3898 307.375 57.3674 308.689 57.864 309.946C58.3021 310.997 59.6168 311.348 60.7562 311.582C63.5024 312.108 66.2487 312.633 68.9657 313.13C71.1569 313.568 73.3481 313.977 75.5392 314.416C76.5616 314.591 77.5843 314.795 78.6067 315C78.7528 315.35 78.8405 315.672 78.9866 315.993C84.1285 330.163 89.7378 344.449 92.3672 358.969C93.0181 362.613 93.4668 366.29 93.7112 369.983C93.7988 371.532 93.8573 373.08 93.8573 374.628Z" fill="#F2F2F2"/>
<path d="M396.004 340.554L468.523 346.992L469.3 347.062V37.6291C469.041 37.4485 468.782 37.2679 468.523 37.0874C453.409 26.516 437.06 17.8314 419.84 11.2267L416.134 62.3357L415.796 67.0148L412.13 117.7L410.999 133.292L396.138 338.748L396.004 340.554Z" fill="#E6E6E6"/>
<path d="M216.668 31.8666C216.149 32.1964 215.631 32.5261 215.113 32.8715V347.062L216.668 346.921L288.401 340.554L288.267 338.748L273.406 133.292L272.275 117.7L268.609 67.0149L268.271 62.3357L264.385 8.73804C247.626 14.5472 231.61 22.3102 216.668 31.8666Z" fill="#E6E6E6"/>
<path d="M215.113 32.8715C214.069 33.5467 213.025 34.2375 211.996 34.9363V351.349C211.996 359.255 216.683 365.881 222.948 367.569C223.972 367.846 225.028 367.986 226.089 367.985H459.102C460.16 367.986 461.213 367.846 462.234 367.569C464.563 366.923 466.673 365.658 468.342 363.91C471.524 360.509 473.263 356.006 473.194 351.349V40.4397C471.906 39.4897 470.611 38.5476 469.3 37.6291C469.041 37.4485 468.782 37.268 468.523 37.0874V351.349C468.524 352.367 468.403 353.382 468.162 354.371C467.055 359.043 463.404 362.466 459.102 362.466H226.089C220.891 362.466 216.668 357.48 216.668 351.349V31.8666C216.149 32.1963 215.631 32.526 215.113 32.8715Z" fill="#E6E6E6"/>
<path d="M470.858 62.3389H214.33V67.0172H470.858V62.3389Z" fill="#E6E6E6"/>
<path d="M392.291 2.66142C390.736 2.27673 389.182 1.91559 387.612 1.578V128.613H392.291V2.66142Z" fill="#E6E6E6"/>
<path d="M297.578 0C296.016 0.290481 294.454 0.588816 292.899 0.910701V128.613H297.578V0Z" fill="#E6E6E6"/>
<path d="M164.036 359.796C164.034 362.481 164.549 365.141 165.551 367.632C165.936 368.597 166.395 369.532 166.925 370.426C167.609 371.593 168.403 372.692 169.296 373.708C171.268 375.956 173.697 377.756 176.421 378.99C179.145 380.223 182.101 380.861 185.091 380.86H492.303C497.887 380.86 503.243 378.642 507.192 374.693C511.14 370.744 513.359 365.389 513.359 359.804C513.359 354.22 511.14 348.864 507.192 344.915C503.243 340.967 497.887 338.748 492.303 338.748H185.091C179.51 338.754 174.159 340.973 170.212 344.919C166.264 348.865 164.043 354.215 164.036 359.796Z" fill="#E6E6E6"/>
<path d="M214.33 133.293L469.299 133.293V117.699L214.33 117.699V133.293Z" fill="#E6E6E6"/>
<path d="M352.73 121.598H330.898C330.898 119.323 331.802 117.141 333.41 115.533C335.019 113.924 337.2 113.021 339.475 113.021H344.153C345.28 113.021 346.395 113.243 347.436 113.674C348.476 114.105 349.422 114.736 350.218 115.533C351.015 116.329 351.646 117.275 352.077 118.315C352.509 119.356 352.73 120.471 352.73 121.598H352.73Z" fill="#E6E6E6"/>
<path d="M0 371.824C6.82023 379.905 14.1971 387.5 22.0766 394.552H655.31C663.19 387.5 670.566 379.905 677.387 371.824H0Z" fill="#3F3D56"/>
<path d="M311.435 295.82V376.338H367.843V295.82C367.844 295.241 367.66 294.677 367.316 294.21C366.973 293.744 366.489 293.4 365.936 293.229C365.675 293.143 365.402 293.1 365.127 293.103H314.159C313.802 293.103 313.448 293.172 313.118 293.309C312.787 293.445 312.487 293.645 312.234 293.897C311.981 294.149 311.78 294.449 311.643 294.779C311.506 295.109 311.435 295.463 311.435 295.82ZM333.449 323.486C333.464 321.899 334.105 320.382 335.232 319.265C336.36 318.148 337.883 317.521 339.471 317.521C341.058 317.521 342.581 318.148 343.709 319.265C344.836 320.382 345.477 321.899 345.492 323.486V332.829C345.484 334.42 344.846 335.944 343.718 337.067C342.589 338.189 341.062 338.82 339.471 338.82C337.879 338.82 336.352 338.189 335.223 337.067C334.095 335.944 333.457 334.42 333.449 332.829V323.486Z" fill="#2F2E41"/>
<path d="M311.262 373.763V381.527C311.264 381.93 311.424 382.315 311.707 382.6C311.991 382.885 312.376 383.047 312.778 383.051H366.501C366.904 383.048 367.289 382.887 367.573 382.602C367.857 382.316 368.016 381.93 368.016 381.527V373.763H311.262Z" fill="#3F3D56"/>
<path d="M222.697 174.509V321.523C222.699 323.397 223.443 325.193 224.768 326.518C226.093 327.843 227.889 328.588 229.763 328.589H447.624C449.497 328.588 451.294 327.843 452.618 326.518C453.943 325.193 454.688 323.397 454.689 321.523V174.509C454.685 172.637 453.939 170.843 452.615 169.52C451.29 168.197 449.496 167.453 447.624 167.451H229.763C227.891 167.453 226.096 168.197 224.772 169.52C223.448 170.843 222.701 172.637 222.697 174.509Z" fill="#3F3D56"/>
<path d="M227.808 176.338V319.71C227.81 320.711 228.208 321.67 228.916 322.378C229.624 323.086 230.583 323.484 231.584 323.486H445.81C446.811 323.484 447.771 323.086 448.478 322.378C449.186 321.67 449.585 320.711 449.586 319.71V176.338C449.586 175.336 449.189 174.374 448.481 173.665C447.773 172.956 446.812 172.556 445.81 172.554H231.584C230.582 172.556 229.622 172.956 228.914 173.665C228.206 174.374 227.808 175.336 227.808 176.338Z" fill="#CB1E36"/>
<path d="M271.49 384.88C271.708 385.153 271.985 385.374 272.301 385.525C272.616 385.675 272.962 385.753 273.311 385.751H400.762C401.111 385.751 401.455 385.673 401.769 385.522C402.084 385.372 402.361 385.154 402.581 384.883C402.8 384.613 402.957 384.296 403.039 383.958C403.121 383.619 403.126 383.266 403.055 382.925L401.076 373.527C400.994 373.144 400.818 372.788 400.562 372.49C400.307 372.192 399.982 371.963 399.616 371.824C399.351 371.72 399.068 371.666 398.784 371.667H275.282C274.997 371.666 274.715 371.72 274.45 371.824C274.084 371.963 273.758 372.192 273.503 372.49C273.248 372.788 273.072 373.144 272.99 373.527L271.011 382.925C270.941 383.266 270.947 383.618 271.03 383.956C271.113 384.294 271.27 384.61 271.49 384.88Z" fill="#2F2E41"/>
<path d="M394.336 375.715H397.495C397.707 375.715 397.878 375.543 397.878 375.331V373.743C397.878 373.531 397.707 373.359 397.495 373.359H394.336C394.125 373.359 393.953 373.531 393.953 373.743V375.331C393.953 375.543 394.125 375.715 394.336 375.715Z" fill="#3F3D56"/>
<path d="M386.485 375.715H389.644C389.856 375.715 390.028 375.543 390.028 375.331V373.743C390.028 373.531 389.856 373.359 389.644 373.359H386.485C386.274 373.359 386.102 373.531 386.102 373.743V375.331C386.102 375.543 386.274 375.715 386.485 375.715Z" fill="#3F3D56"/>
<path d="M378.635 375.715H381.793C382.005 375.715 382.177 375.543 382.177 375.331V373.743C382.177 373.531 382.005 373.359 381.793 373.359H378.635C378.423 373.359 378.251 373.531 378.251 373.743V375.331C378.251 375.543 378.423 375.715 378.635 375.715Z" fill="#3F3D56"/>
<path d="M370.784 375.715H373.943C374.154 375.715 374.326 375.543 374.326 375.331V373.743C374.326 373.531 374.154 373.359 373.943 373.359H370.784C370.572 373.359 370.4 373.531 370.4 373.743V375.331C370.4 375.543 370.572 375.715 370.784 375.715Z" fill="#3F3D56"/>
<path d="M362.933 375.715H366.092C366.303 375.715 366.475 375.543 366.475 375.331V373.743C366.475 373.531 366.303 373.359 366.092 373.359H362.933C362.721 373.359 362.55 373.531 362.55 373.743V375.331C362.55 375.543 362.721 375.715 362.933 375.715Z" fill="#3F3D56"/>
<path d="M355.082 375.715H358.241C358.453 375.715 358.624 375.543 358.624 375.331V373.743C358.624 373.531 358.453 373.359 358.241 373.359H355.082C354.87 373.359 354.699 373.531 354.699 373.743V375.331C354.699 375.543 354.87 375.715 355.082 375.715Z" fill="#3F3D56"/>
<path d="M347.231 375.715H350.39C350.602 375.715 350.773 375.543 350.773 375.331V373.743C350.773 373.531 350.602 373.359 350.39 373.359H347.231C347.02 373.359 346.848 373.531 346.848 373.743V375.331C346.848 375.543 347.02 375.715 347.231 375.715Z" fill="#3F3D56"/>
<path d="M339.38 375.715H342.539C342.751 375.715 342.923 375.543 342.923 375.331V373.743C342.923 373.531 342.751 373.359 342.539 373.359H339.38C339.169 373.359 338.997 373.531 338.997 373.743V375.331C338.997 375.543 339.169 375.715 339.38 375.715Z" fill="#3F3D56"/>
<path d="M331.529 375.715H334.688C334.9 375.715 335.072 375.543 335.072 375.331V373.743C335.072 373.531 334.9 373.359 334.688 373.359H331.529C331.318 373.359 331.146 373.531 331.146 373.743V375.331C331.146 375.543 331.318 375.715 331.529 375.715Z" fill="#3F3D56"/>
<path d="M323.679 375.715H326.838C327.049 375.715 327.221 375.543 327.221 375.331V373.743C327.221 373.531 327.049 373.359 326.838 373.359H323.679C323.467 373.359 323.295 373.531 323.295 373.743V375.331C323.295 375.543 323.467 375.715 323.679 375.715Z" fill="#3F3D56"/>
<path d="M315.828 375.715H318.987C319.198 375.715 319.37 375.543 319.37 375.331V373.743C319.37 373.531 319.198 373.359 318.987 373.359H315.828C315.616 373.359 315.445 373.531 315.445 373.743V375.331C315.445 375.543 315.616 375.715 315.828 375.715Z" fill="#3F3D56"/>
<path d="M307.977 375.715H311.136C311.348 375.715 311.519 375.543 311.519 375.331V373.743C311.519 373.531 311.348 373.359 311.136 373.359H307.977C307.765 373.359 307.594 373.531 307.594 373.743V375.331C307.594 375.543 307.765 375.715 307.977 375.715Z" fill="#3F3D56"/>
<path d="M300.126 375.715H303.285C303.497 375.715 303.668 375.543 303.668 375.331V373.743C303.668 373.531 303.497 373.359 303.285 373.359H300.126C299.914 373.359 299.743 373.531 299.743 373.743V375.331C299.743 375.543 299.914 375.715 300.126 375.715Z" fill="#3F3D56"/>
<path d="M292.275 375.715H295.434C295.646 375.715 295.817 375.543 295.817 375.331V373.743C295.817 373.531 295.646 373.359 295.434 373.359H292.275C292.064 373.359 291.892 373.531 291.892 373.743V375.331C291.892 375.543 292.064 375.715 292.275 375.715Z" fill="#3F3D56"/>
<path d="M284.424 375.715H287.583C287.795 375.715 287.967 375.543 287.967 375.331V373.743C287.967 373.531 287.795 373.359 287.583 373.359H284.424C284.213 373.359 284.041 373.531 284.041 373.743V375.331C284.041 375.543 284.213 375.715 284.424 375.715Z" fill="#3F3D56"/>
<path d="M276.574 375.715H279.732C279.944 375.715 280.116 375.543 280.116 375.331V373.743C280.116 373.531 279.944 373.359 279.732 373.359H276.574C276.362 373.359 276.19 373.531 276.19 373.743V375.331C276.19 375.543 276.362 375.715 276.574 375.715Z" fill="#3F3D56"/>
<path d="M394.429 379.64H397.588C397.8 379.64 397.971 379.468 397.971 379.257V377.668C397.971 377.456 397.8 377.285 397.588 377.285H394.429C394.217 377.285 394.046 377.456 394.046 377.668V379.257C394.046 379.468 394.217 379.64 394.429 379.64Z" fill="#3F3D56"/>
<path d="M386.578 379.64H389.737C389.949 379.64 390.12 379.468 390.12 379.257V377.668C390.12 377.456 389.949 377.285 389.737 377.285H386.578C386.366 377.285 386.195 377.456 386.195 377.668V379.257C386.195 379.468 386.366 379.64 386.578 379.64Z" fill="#3F3D56"/>
<path d="M378.727 379.64H381.886C382.098 379.64 382.27 379.468 382.27 379.257V377.668C382.27 377.456 382.098 377.285 381.886 377.285H378.727C378.516 377.285 378.344 377.456 378.344 377.668V379.257C378.344 379.468 378.516 379.64 378.727 379.64Z" fill="#3F3D56"/>
<path d="M370.876 379.64H374.035C374.247 379.64 374.419 379.468 374.419 379.257V377.668C374.419 377.456 374.247 377.285 374.035 377.285H370.876C370.665 377.285 370.493 377.456 370.493 377.668V379.257C370.493 379.468 370.665 379.64 370.876 379.64Z" fill="#3F3D56"/>
<path d="M363.026 379.64H366.185C366.396 379.64 366.568 379.468 366.568 379.257V377.668C366.568 377.456 366.396 377.285 366.185 377.285H363.026C362.814 377.285 362.642 377.456 362.642 377.668V379.257C362.642 379.468 362.814 379.64 363.026 379.64Z" fill="#3F3D56"/>
<path d="M355.175 379.64H358.334C358.545 379.64 358.717 379.468 358.717 379.257V377.668C358.717 377.456 358.545 377.285 358.334 377.285H355.175C354.963 377.285 354.792 377.456 354.792 377.668V379.257C354.792 379.468 354.963 379.64 355.175 379.64Z" fill="#3F3D56"/>
<path d="M347.324 379.64H350.483C350.695 379.64 350.866 379.468 350.866 379.257V377.668C350.866 377.456 350.695 377.285 350.483 377.285H347.324C347.112 377.285 346.941 377.456 346.941 377.668V379.257C346.941 379.468 347.112 379.64 347.324 379.64Z" fill="#3F3D56"/>
<path d="M339.473 379.64H342.632C342.844 379.64 343.015 379.468 343.015 379.257V377.668C343.015 377.456 342.844 377.285 342.632 377.285H339.473C339.261 377.285 339.09 377.456 339.09 377.668V379.257C339.09 379.468 339.261 379.64 339.473 379.64Z" fill="#3F3D56"/>
<path d="M331.622 379.64H334.781C334.993 379.64 335.164 379.468 335.164 379.257V377.668C335.164 377.456 334.993 377.285 334.781 377.285H331.622C331.411 377.285 331.239 377.456 331.239 377.668V379.257C331.239 379.468 331.411 379.64 331.622 379.64Z" fill="#3F3D56"/>
<path d="M323.771 379.64H326.93C327.142 379.64 327.314 379.468 327.314 379.257V377.668C327.314 377.456 327.142 377.285 326.93 377.285H323.771C323.56 377.285 323.388 377.456 323.388 377.668V379.257C323.388 379.468 323.56 379.64 323.771 379.64Z" fill="#3F3D56"/>
<path d="M315.921 379.64H319.079C319.291 379.64 319.463 379.468 319.463 379.257V377.668C319.463 377.456 319.291 377.285 319.079 377.285H315.921C315.709 377.285 315.537 377.456 315.537 377.668V379.257C315.537 379.468 315.709 379.64 315.921 379.64Z" fill="#3F3D56"/>
<path d="M308.07 379.64H311.229C311.44 379.64 311.612 379.468 311.612 379.257V377.668C311.612 377.456 311.44 377.285 311.229 377.285H308.07C307.858 377.285 307.686 377.456 307.686 377.668V379.257C307.686 379.468 307.858 379.64 308.07 379.64Z" fill="#3F3D56"/>
<path d="M300.219 379.64H303.378C303.589 379.64 303.761 379.468 303.761 379.257V377.668C303.761 377.456 303.589 377.285 303.378 377.285H300.219C300.007 377.285 299.836 377.456 299.836 377.668V379.257C299.836 379.468 300.007 379.64 300.219 379.64Z" fill="#3F3D56"/>
<path d="M292.368 379.64H295.527C295.739 379.64 295.91 379.468 295.91 379.257V377.668C295.91 377.456 295.739 377.285 295.527 377.285H292.368C292.156 377.285 291.985 377.456 291.985 377.668V379.257C291.985 379.468 292.156 379.64 292.368 379.64Z" fill="#3F3D56"/>
<path d="M284.517 379.64H287.676C287.888 379.64 288.059 379.468 288.059 379.257V377.668C288.059 377.456 287.888 377.285 287.676 377.285H284.517C284.306 377.285 284.134 377.456 284.134 377.668V379.257C284.134 379.468 284.306 379.64 284.517 379.64Z" fill="#3F3D56"/>
<path d="M276.666 379.64H279.825C280.037 379.64 280.209 379.468 280.209 379.257V377.668C280.209 377.456 280.037 377.285 279.825 377.285H276.666C276.455 377.285 276.283 377.456 276.283 377.668V379.257C276.283 379.468 276.455 379.64 276.666 379.64Z" fill="#3F3D56"/>
<path d="M329.267 384.35H359.904C360.116 384.35 360.287 384.179 360.287 383.967V382.379C360.287 382.167 360.116 381.995 359.904 381.995H329.267C329.055 381.995 328.884 382.167 328.884 382.379V383.967C328.884 384.179 329.055 384.35 329.267 384.35Z" fill="#3F3D56"/>
<path d="M242.349 192.304H442.8C443.008 192.299 443.206 192.213 443.352 192.064C443.498 191.915 443.579 191.715 443.579 191.507C443.579 191.298 443.498 191.098 443.352 190.949C443.206 190.8 443.008 190.714 442.8 190.71H242.349C242.141 190.714 241.942 190.8 241.797 190.949C241.651 191.098 241.569 191.298 241.569 191.507C241.569 191.715 241.651 191.915 241.797 192.064C241.942 192.213 242.141 192.299 242.349 192.304Z" fill="#3F3D56"/>
<path d="M429.155 186.64C431.735 186.64 433.826 184.501 433.826 181.864C433.826 179.226 431.735 177.088 429.155 177.088C426.575 177.088 424.483 179.226 424.483 181.864C424.483 184.501 426.575 186.64 429.155 186.64Z" fill="#3F3D56"/>
<path d="M413.016 186.64C415.596 186.64 417.688 184.501 417.688 181.864C417.688 179.226 415.596 177.088 413.016 177.088C410.436 177.088 408.345 179.226 408.345 181.864C408.345 184.501 410.436 186.64 413.016 186.64Z" fill="#3F3D56"/>
<path d="M396.878 186.64C399.458 186.64 401.55 184.501 401.55 181.864C401.55 179.226 399.458 177.088 396.878 177.088C394.298 177.088 392.207 179.226 392.207 181.864C392.207 184.501 394.298 186.64 396.878 186.64Z" fill="#3F3D56"/>
<path d="M251.211 179.141C251.211 179.253 251.232 179.365 251.275 179.47C251.318 179.574 251.381 179.669 251.46 179.75C251.54 179.83 251.634 179.894 251.738 179.937C251.842 179.981 251.954 180.004 252.067 180.004H263.529C263.756 179.999 263.971 179.905 264.13 179.743C264.288 179.581 264.377 179.363 264.377 179.137C264.377 178.91 264.288 178.692 264.13 178.53C263.971 178.368 263.756 178.274 263.529 178.269H252.067C251.838 178.272 251.62 178.365 251.459 178.528C251.299 178.692 251.21 178.912 251.211 179.141Z" fill="#3F3D56"/>
<path d="M251.211 182.399C251.211 182.512 251.232 182.623 251.275 182.728C251.318 182.832 251.381 182.928 251.46 183.008C251.54 183.088 251.634 183.152 251.738 183.195C251.842 183.239 251.954 183.262 252.067 183.262H263.529C263.756 183.257 263.972 183.164 264.13 183.001C264.289 182.839 264.378 182.622 264.378 182.395C264.378 182.168 264.289 181.95 264.13 181.788C263.972 181.626 263.756 181.532 263.529 181.527H252.067C251.838 181.53 251.62 181.623 251.459 181.786C251.299 181.95 251.21 182.17 251.211 182.399Z" fill="#3F3D56"/>
<path d="M251.211 185.649C251.21 185.878 251.299 186.098 251.459 186.261C251.62 186.424 251.838 186.518 252.067 186.52H263.529C263.756 186.515 263.971 186.421 264.13 186.259C264.288 186.097 264.377 185.88 264.377 185.653C264.377 185.426 264.288 185.209 264.13 185.047C263.971 184.884 263.756 184.791 263.529 184.785H252.067C251.954 184.786 251.842 184.809 251.738 184.852C251.634 184.896 251.54 184.96 251.46 185.04C251.381 185.12 251.318 185.215 251.275 185.32C251.232 185.424 251.211 185.536 251.211 185.649Z" fill="#3F3D56"/>
<path d="M254.754 210.829H250.635C249.386 210.829 248.374 211.841 248.374 213.09C248.374 214.339 249.386 215.351 250.635 215.351H254.754C256.002 215.351 257.015 214.339 257.015 213.09C257.015 211.841 256.002 210.829 254.754 210.829Z" fill="#E6E6E6"/>
<path d="M301.859 210.829H297.74C296.491 210.829 295.479 211.841 295.479 213.09C295.479 214.339 296.491 215.351 297.74 215.351H301.859C303.107 215.351 304.12 214.339 304.12 213.09C304.12 211.841 303.107 210.829 301.859 210.829Z" fill="#E6E6E6"/>
<path d="M315.205 210.829H311.086C309.838 210.829 308.826 211.841 308.826 213.09C308.826 214.339 309.838 215.351 311.086 215.351H315.205C316.454 215.351 317.466 214.339 317.466 213.09C317.466 211.841 316.454 210.829 315.205 210.829Z" fill="#E6E6E6"/>
<path d="M289.046 210.452H263.448C262.199 210.452 261.187 211.464 261.187 212.713C261.187 213.962 262.199 214.974 263.448 214.974H289.046C290.295 214.974 291.307 213.962 291.307 212.713C291.307 211.464 290.295 210.452 289.046 210.452Z" fill="#E6E6E6"/>
<path d="M351.853 210.452H326.254C325.006 210.452 323.993 211.464 323.993 212.713C323.993 213.962 325.006 214.974 326.254 214.974H351.853C353.101 214.974 354.114 213.962 354.114 212.713C354.114 211.464 353.101 210.452 351.853 210.452Z" fill="#E6E6E6"/>
<path d="M267.315 221.035H263.196C261.948 221.035 260.935 222.048 260.935 223.296C260.935 224.545 261.948 225.557 263.196 225.557H267.315C268.564 225.557 269.576 224.545 269.576 223.296C269.576 222.048 268.564 221.035 267.315 221.035Z" fill="#E6E6E6"/>
<path d="M314.42 221.035H310.301C309.053 221.035 308.04 222.048 308.04 223.296C308.04 224.545 309.053 225.557 310.301 225.557H314.42C315.669 225.557 316.681 224.545 316.681 223.296C316.681 222.048 315.669 221.035 314.42 221.035Z" fill="#E6E6E6"/>
<path d="M327.767 221.035H323.648C322.399 221.035 321.387 222.048 321.387 223.296C321.387 224.545 322.399 225.557 323.648 225.557H327.767C329.015 225.557 330.028 224.545 330.028 223.296C330.028 222.048 329.015 221.035 327.767 221.035Z" fill="#E6E6E6"/>
<path d="M301.607 220.658H276.009C274.76 220.658 273.748 221.671 273.748 222.919C273.748 224.168 274.76 225.18 276.009 225.18H301.607C302.856 225.18 303.868 224.168 303.868 222.919C303.868 221.671 302.856 220.658 301.607 220.658Z" fill="#E6E6E6"/>
<path d="M364.414 220.658H338.816C337.567 220.658 336.555 221.671 336.555 222.919C336.555 224.168 337.567 225.18 338.816 225.18H364.414C365.663 225.18 366.675 224.168 366.675 222.919C366.675 221.671 365.663 220.658 364.414 220.658Z" fill="#E6E6E6"/>
<path d="M279.876 231.241H275.758C274.509 231.241 273.497 232.254 273.497 233.502C273.497 234.751 274.509 235.763 275.758 235.763H279.876C281.125 235.763 282.137 234.751 282.137 233.502C282.137 232.254 281.125 231.241 279.876 231.241Z" fill="#E6E6E6"/>
<path d="M326.981 231.241H322.863C321.614 231.241 320.602 232.254 320.602 233.502C320.602 234.751 321.614 235.763 322.863 235.763H326.981C328.23 235.763 329.242 234.751 329.242 233.502C329.242 232.254 328.23 231.241 326.981 231.241Z" fill="#E6E6E6"/>
<path d="M340.328 231.241H336.209C334.96 231.241 333.948 232.254 333.948 233.502C333.948 234.751 334.96 235.763 336.209 235.763H340.328C341.577 235.763 342.589 234.751 342.589 233.502C342.589 232.254 341.577 231.241 340.328 231.241Z" fill="#E6E6E6"/>
<path d="M314.169 230.864H288.57C287.322 230.864 286.309 231.877 286.309 233.125C286.309 234.374 287.322 235.386 288.57 235.386H314.169C315.417 235.386 316.43 234.374 316.43 233.125C316.43 231.877 315.417 230.864 314.169 230.864Z" fill="#E6E6E6"/>
<path d="M376.975 230.864H351.377C350.128 230.864 349.116 231.877 349.116 233.125C349.116 234.374 350.128 235.386 351.377 235.386H376.975C378.224 235.386 379.236 234.374 379.236 233.125C379.236 231.877 378.224 230.864 376.975 230.864Z" fill="#E6E6E6"/>
<path d="M292.438 241.447H288.319C287.07 241.447 286.058 242.46 286.058 243.708C286.058 244.957 287.07 245.969 288.319 245.969H292.438C293.686 245.969 294.699 244.957 294.699 243.708C294.699 242.46 293.686 241.447 292.438 241.447Z" fill="#E6E6E6"/>
<path d="M339.543 241.447H335.424C334.175 241.447 333.163 242.46 333.163 243.708C333.163 244.957 334.175 245.969 335.424 245.969H339.543C340.792 245.969 341.804 244.957 341.804 243.708C341.804 242.46 340.792 241.447 339.543 241.447Z" fill="#E6E6E6"/>
<path d="M352.889 241.447H348.771C347.522 241.447 346.51 242.46 346.51 243.708C346.51 244.957 347.522 245.969 348.771 245.969H352.889C354.138 245.969 355.15 244.957 355.15 243.708C355.15 242.46 354.138 241.447 352.889 241.447Z" fill="#E6E6E6"/>
<path d="M326.73 241.07H301.132C299.883 241.07 298.871 242.083 298.871 243.331C298.871 244.58 299.883 245.592 301.132 245.592H326.73C327.979 245.592 328.991 244.58 328.991 243.331C328.991 242.083 327.979 241.07 326.73 241.07Z" fill="#E6E6E6"/>
<path d="M301.859 282.031H297.74C296.491 282.031 295.479 283.044 295.479 284.292C295.479 285.541 296.491 286.553 297.74 286.553H301.859C303.107 286.553 304.12 285.541 304.12 284.292C304.12 283.044 303.107 282.031 301.859 282.031Z" fill="#E6E6E6"/>
<path d="M315.205 282.031H311.086C309.838 282.031 308.826 283.044 308.826 284.292C308.826 285.541 309.838 286.553 311.086 286.553H315.205C316.454 286.553 317.466 285.541 317.466 284.292C317.466 283.044 316.454 282.031 315.205 282.031Z" fill="#E6E6E6"/>
<path d="M351.853 282.408H326.254C325.006 282.408 323.993 283.421 323.993 284.669C323.993 285.918 325.006 286.93 326.254 286.93H351.853C353.101 286.93 354.114 285.918 354.114 284.669C354.114 283.421 353.101 282.408 351.853 282.408Z" fill="#E6E6E6"/>
<path d="M254.754 282.031H250.635C249.386 282.031 248.374 283.044 248.374 284.292C248.374 285.541 249.386 286.553 250.635 286.553H254.754C256.002 286.553 257.015 285.541 257.015 284.292C257.015 283.044 256.002 282.031 254.754 282.031Z" fill="#E6E6E6"/>
<path d="M289.046 282.408H263.448C262.199 282.408 261.187 283.421 261.187 284.669C261.187 285.918 262.199 286.93 263.448 286.93H289.046C290.295 286.93 291.307 285.918 291.307 284.669C291.307 283.421 290.295 282.408 289.046 282.408Z" fill="#E6E6E6"/>
<path d="M267.315 271.825H263.196C261.948 271.825 260.935 272.837 260.935 274.086C260.935 275.335 261.948 276.347 263.196 276.347H267.315C268.564 276.347 269.576 275.335 269.576 274.086C269.576 272.837 268.564 271.825 267.315 271.825Z" fill="#E6E6E6"/>
<path d="M314.42 271.825H310.301C309.053 271.825 308.04 272.837 308.04 274.086C308.04 275.335 309.053 276.347 310.301 276.347H314.42C315.669 276.347 316.681 275.335 316.681 274.086C316.681 272.837 315.669 271.825 314.42 271.825Z" fill="#E6E6E6"/>
<path d="M327.767 271.825H323.648C322.399 271.825 321.387 272.837 321.387 274.086C321.387 275.335 322.399 276.347 323.648 276.347H327.767C329.015 276.347 330.028 275.335 330.028 274.086C330.028 272.837 329.015 271.825 327.767 271.825Z" fill="#E6E6E6"/>
<path d="M301.607 272.202H276.009C274.76 272.202 273.748 273.214 273.748 274.463C273.748 275.712 274.76 276.724 276.009 276.724H301.607C302.856 276.724 303.868 275.712 303.868 274.463C303.868 273.214 302.856 272.202 301.607 272.202Z" fill="#E6E6E6"/>
<path d="M279.876 261.619H275.758C274.509 261.619 273.497 262.631 273.497 263.88C273.497 265.129 274.509 266.141 275.758 266.141H279.876C281.125 266.141 282.137 265.129 282.137 263.88C282.137 262.631 281.125 261.619 279.876 261.619Z" fill="#E6E6E6"/>
<path d="M326.981 261.619H322.863C321.614 261.619 320.602 262.631 320.602 263.88C320.602 265.129 321.614 266.141 322.863 266.141H326.981C328.23 266.141 329.242 265.129 329.242 263.88C329.242 262.631 328.23 261.619 326.981 261.619Z" fill="#E6E6E6"/>
<path d="M340.328 261.619H336.209C334.96 261.619 333.948 262.631 333.948 263.88C333.948 265.129 334.96 266.141 336.209 266.141H340.328C341.577 266.141 342.589 265.129 342.589 263.88C342.589 262.631 341.577 261.619 340.328 261.619Z" fill="#E6E6E6"/>
<path d="M314.169 261.996H288.57C287.322 261.996 286.309 263.008 286.309 264.257C286.309 265.506 287.322 266.518 288.57 266.518H314.169C315.417 266.518 316.43 265.506 316.43 264.257C316.43 263.008 315.417 261.996 314.169 261.996Z" fill="#E6E6E6"/>
<path d="M292.438 251.413H288.319C287.07 251.413 286.058 252.425 286.058 253.674C286.058 254.923 287.07 255.935 288.319 255.935H292.438C293.686 255.935 294.699 254.923 294.699 253.674C294.699 252.425 293.686 251.413 292.438 251.413Z" fill="#E6E6E6"/>
<path d="M339.543 251.413H335.424C334.175 251.413 333.163 252.425 333.163 253.674C333.163 254.923 334.175 255.935 335.424 255.935H339.543C340.792 255.935 341.804 254.923 341.804 253.674C341.804 252.425 340.792 251.413 339.543 251.413Z" fill="#E6E6E6"/>
<path d="M352.889 251.413H348.771C347.522 251.413 346.51 252.425 346.51 253.674C346.51 254.923 347.522 255.935 348.771 255.935H352.889C354.138 255.935 355.15 254.923 355.15 253.674C355.15 252.425 354.138 251.413 352.889 251.413Z" fill="#E6E6E6"/>
<path d="M326.73 251.79H301.132C299.883 251.79 298.871 252.802 298.871 254.051C298.871 255.3 299.883 256.312 301.132 256.312H326.73C327.979 256.312 328.991 255.3 328.991 254.051C328.991 252.802 327.979 251.79 326.73 251.79Z" fill="#E6E6E6"/>
<path d="M274.71 428.619C274.538 428.705 274.365 428.791 274.192 428.87C273.101 429.412 272.002 429.945 270.895 430.471C267.582 432.049 264.227 433.549 260.83 434.97C251.892 438.708 242.722 441.863 233.376 444.415C231.806 434.625 230.282 411.535 228.822 394.554C228.547 391.358 228.273 388.383 227.998 385.753C227.737 382.3 227.241 378.869 226.514 375.484C226.443 375.219 226.34 374.963 226.208 374.723C226.357 376.081 226.514 380.132 226.663 385.753C226.742 388.383 226.812 391.358 226.891 394.554C227.26 410.899 227.645 433.141 228.029 445.804C226.938 446.071 225.839 446.338 224.74 446.589C224.049 446.754 223.35 446.911 222.651 447.06C221.804 447.249 220.956 447.437 220.108 447.61C219.221 447.798 218.333 447.979 217.446 448.151C202.949 450.999 188.209 452.43 173.435 452.422C172.453 452.422 171.48 452.414 170.498 452.407C170.2 452.407 169.902 452.399 169.595 452.391C168.732 452.375 167.837 452.36 166.926 452.336C149.467 451.853 132.121 449.353 115.236 444.886L115.919 394.554L116.037 385.753L116.084 382.416C115.695 383.49 115.463 384.613 115.393 385.753C115.118 387.896 114.836 390.935 114.553 394.554C113.478 408.497 112.371 430.99 111.224 443.786C97.6503 439.924 87.7269 436.399 75.3225 430.197C74.8436 429.961 74.3569 429.718 73.878 429.474C73.9643 428.87 74.0585 428.265 74.1449 427.645C75.5502 417.879 73.8937 405.168 75.4481 394.554C76.6336 386.365 77.8583 378.499 79.0909 371.826C80.5826 363.794 82.0977 357.482 83.5973 354.412C85.3245 350.872 87.0517 347.386 88.7239 344.049C89.4462 342.613 90.1554 341.202 90.8515 339.818C91.2283 339.072 91.6052 338.334 91.9742 337.612C93.6542 334.322 95.2401 331.284 96.6925 328.591C97.7131 326.699 98.6552 324.987 99.5188 323.488C100.532 321.721 101.427 320.261 102.165 319.154C107.615 310.892 115.726 304.74 125.152 301.718L125.387 301.655L125.615 301.749L125.874 301.867L140.838 296.395L147.519 280.308L181.835 278.196L187.378 282.412L190.212 284.571L193.234 286.872L198.793 291.103L200.371 291.59L202.718 292.312L218.773 297.243L218.938 297.172L219.174 297.235C227.751 299.98 235.259 305.332 240.653 312.544C241.187 313.235 241.682 313.949 242.161 314.671C243.464 316.603 245.223 319.657 247.295 323.488C248.151 325.066 249.054 326.777 250.004 328.591C250.577 329.682 255.523 345.117 260.335 360.882C264.834 375.641 269.215 390.691 269.788 394.554C269.89 395.268 270 395.99 270.102 396.705C270.754 401.172 271.397 405.671 272.018 410.059C272.936 416.568 273.831 422.848 274.687 428.462C274.695 428.517 274.703 428.564 274.71 428.619Z" fill="#3F3D56"/>
<path opacity="0.2" d="M238.344 371.789L231.673 346.045L225.782 368.26L238.344 371.789Z" fill="black"/>
<path d="M12.4273 371.491C12.7732 372.498 13.4294 373.369 14.3015 373.98C15.1736 374.591 16.217 374.91 17.2816 374.891L38.0799 374.356C39.1524 374.335 40.1893 373.967 41.0356 373.308C41.8819 372.649 42.4923 371.734 42.7754 370.7L45.7186 339.228C46.7628 339.701 47.8996 339.934 49.0457 339.911C51.0567 339.861 52.9653 339.014 54.3516 337.556C55.738 336.098 56.4884 334.149 56.4379 332.138C56.3875 330.127 55.5402 328.219 54.0825 326.833C52.6248 325.446 50.6761 324.696 48.665 324.746C48.2069 324.745 47.75 324.792 47.302 324.888C46.8148 324.361 46.2226 323.942 45.5635 323.657C44.9045 323.373 44.1932 323.23 43.4754 323.237L11.4828 324.063C11.2174 324.073 10.9534 324.106 10.6937 324.161C9.99208 324.292 9.32665 324.571 8.74215 324.981C8.15766 325.39 7.66767 325.92 7.30517 326.535C6.94268 327.15 6.71609 327.835 6.64065 328.545C6.56521 329.255 6.64268 329.972 6.86783 330.649L12.4273 371.491ZM46.3221 337.091L48.4165 329.591C48.6547 328.725 48.6602 327.811 48.4324 326.942C48.5341 326.942 48.6237 326.893 48.7253 326.893C50.1613 326.863 51.5505 327.404 52.5883 328.397C53.6261 329.39 54.2277 330.754 54.2614 332.19C54.295 333.626 53.7578 335.017 52.7677 336.057C51.7775 337.098 50.4152 337.703 48.9794 337.741C48.051 337.77 47.1323 337.545 46.3221 337.091Z" fill="#2F2E41"/>
<path d="M10.6937 324.161C11.3753 328.058 19.0384 330.798 28.2528 330.322C36.726 329.931 43.6541 326.956 44.9234 323.43C44.4537 323.291 43.9652 323.226 43.4754 323.237L11.4829 324.063C11.2175 324.073 10.9534 324.106 10.6937 324.161Z" fill="#3F3D56"/>
<path d="M29.9415 354.197C29.9836 354.186 30.0237 354.168 30.06 354.145L34.5767 351.188C34.6313 351.153 34.6761 351.104 34.7072 351.047C34.7383 350.989 34.7546 350.925 34.7546 350.86C34.7546 350.795 34.7384 350.731 34.7074 350.673C34.6763 350.616 34.6315 350.567 34.5769 350.532L29.8823 347.457C29.8392 347.428 29.7909 347.409 29.7402 347.399C29.6895 347.389 29.6373 347.389 29.5867 347.4C29.5361 347.41 29.488 347.43 29.4453 347.459C29.4026 347.488 29.366 347.526 29.3377 347.569C29.3094 347.612 29.2898 347.66 29.2803 347.711C29.2707 347.762 29.2712 347.814 29.2819 347.865C29.2925 347.915 29.313 347.963 29.3422 348.006C29.3714 348.048 29.4088 348.085 29.4521 348.113L33.6452 350.859L29.6303 353.488C29.5525 353.539 29.4953 353.615 29.4689 353.704C29.4424 353.793 29.4484 353.889 29.4857 353.974C29.523 354.059 29.5893 354.128 29.6728 354.169C29.7562 354.21 29.8514 354.219 29.9415 354.197H29.9415Z" fill="#CB1E36"/>
<path d="M22.8076 354.526C22.8834 354.507 22.9518 354.465 23.0039 354.407C23.056 354.349 23.0895 354.276 23.1002 354.199C23.1108 354.121 23.0981 354.042 23.0636 353.972C23.0291 353.902 22.9744 353.844 22.9066 353.805L18.7432 351.418L22.7673 348.429C22.8086 348.398 22.8435 348.36 22.87 348.315C22.8964 348.271 22.9139 348.222 22.9214 348.171C22.9289 348.12 22.9263 348.068 22.9137 348.018C22.9012 347.968 22.8789 347.921 22.8482 347.88C22.8174 347.839 22.7789 347.804 22.7347 347.777C22.6905 347.751 22.6415 347.733 22.5905 347.726C22.5396 347.718 22.4876 347.721 22.4377 347.734C22.3877 347.746 22.3407 347.768 22.2994 347.799L17.7941 351.146C17.7417 351.184 17.6999 351.236 17.6723 351.295C17.6447 351.354 17.6323 351.419 17.6361 351.484C17.6399 351.549 17.6599 351.612 17.6942 351.667C17.7285 351.723 17.7761 351.769 17.8327 351.801L22.5159 354.486C22.6042 354.536 22.7089 354.551 22.8076 354.526Z" fill="#CB1E36"/>
<path d="M29.4923 356.787C29.5302 356.778 29.5665 356.763 29.5998 356.742C29.6439 356.715 29.6823 356.68 29.7128 356.638C29.7432 356.597 29.7652 356.55 29.7774 356.5C29.7896 356.449 29.7918 356.397 29.7839 356.347C29.776 356.296 29.7581 356.247 29.7313 356.203L23.3286 345.676C23.2742 345.587 23.1869 345.524 23.0859 345.5C22.9849 345.476 22.8785 345.492 22.7898 345.546C22.7011 345.6 22.6374 345.687 22.6127 345.788C22.5879 345.889 22.6042 345.996 22.6578 346.085L29.0605 356.611C29.1042 356.683 29.1697 356.739 29.2474 356.77C29.3251 356.802 29.4109 356.808 29.4923 356.787Z" fill="#CB1E36"/>
<path d="M616.408 429.472C615.929 429.716 615.443 429.959 614.964 430.195C602.559 436.397 592.636 439.922 579.062 443.785C577.916 430.988 576.809 408.495 575.733 394.552C575.45 390.933 575.168 387.894 574.893 385.751C574.824 384.612 574.591 383.488 574.202 382.415L574.249 385.751L574.367 394.552L575.05 444.884C558.165 449.351 540.82 451.851 523.36 452.334C522.449 452.358 521.554 452.373 520.691 452.389C520.385 452.397 520.086 452.405 519.788 452.405C518.807 452.413 517.833 452.42 516.852 452.42C498.453 452.434 480.12 450.212 462.257 445.802C462.642 433.139 463.026 410.897 463.395 394.552C463.474 391.357 463.544 388.381 463.623 385.751C463.772 380.13 463.929 376.079 464.078 374.721C463.946 374.961 463.843 375.217 463.772 375.482C463.045 378.868 462.549 382.298 462.288 385.751C462.014 388.381 461.739 391.357 461.464 394.552C460.004 411.533 458.481 434.623 456.91 444.413C447.564 441.861 438.394 438.706 429.456 434.968C424.746 433.005 420.119 430.888 415.576 428.617C416.439 422.964 417.342 416.629 418.269 410.057C418.991 404.962 419.737 399.726 420.498 394.552C421.676 386.56 461.684 300.255 471.113 297.233L471.348 297.17L471.513 297.241L487.568 292.31L489.915 291.588L491.493 291.101L497.052 286.87L500.074 284.569L502.909 282.41L508.451 278.195L542.767 280.306L549.448 296.393L564.412 301.865L564.671 301.747L564.899 301.653L565.134 301.716C574.56 304.738 582.671 310.89 588.122 319.152C588.86 320.259 589.755 321.72 590.767 323.486C591.631 324.986 592.573 326.697 593.594 328.589C595.046 331.282 596.632 334.32 598.312 337.61C598.681 338.332 599.058 339.07 599.435 339.816C600.133 341.198 600.843 342.608 601.562 344.047C603.235 347.384 604.962 350.87 606.689 354.411C608.188 357.48 609.704 363.792 611.195 371.824C612.428 378.497 613.653 386.363 614.838 394.552C616.393 405.166 614.736 417.877 616.141 427.643C616.228 428.263 616.322 428.868 616.408 429.472Z" fill="#3F3D56"/>
<path d="M515.764 272.42C537.807 272.42 555.675 254.551 555.675 232.509C555.675 210.467 537.807 192.598 515.764 192.598C493.722 192.598 475.854 210.467 475.854 232.509C475.854 254.551 493.722 272.42 515.764 272.42Z" fill="#FFB6B6"/>
<path opacity="0.2" d="M451.941 371.789L458.612 346.045L464.502 368.26L451.941 371.789Z" fill="black"/>
<path d="M629.456 355.015C627.07 387.895 629.543 402.371 616.369 429.48C604.383 435.347 591.898 440.134 579.062 443.785C577.727 444.162 576.39 444.528 575.05 444.884C558.165 449.351 540.82 451.851 523.36 452.334C522.449 452.358 521.554 452.373 520.691 452.389C520.385 452.397 520.086 452.405 519.788 452.405C518.807 452.413 517.833 452.421 516.852 452.421C498.453 452.434 480.12 450.212 462.257 445.802C460.467 445.363 458.685 444.899 456.911 444.413C447.565 441.861 438.394 438.706 429.456 434.968C424.746 433.005 420.119 430.888 415.576 428.617C414.547 428.099 413.519 427.581 412.506 427.047C407.301 417.893 404.341 406.76 404.278 393.382C407.882 370.332 621.496 335.137 629.456 355.015Z" fill="#2F2E41"/>
<path opacity="0.2" d="M629.45 360.646C629.572 358.61 629.708 356.508 629.867 354.318C621.907 334.44 408.293 369.635 404.689 392.685C404.699 394.799 404.79 396.85 404.942 398.852C413.668 376.101 616.604 342.651 629.45 360.646Z" fill="black"/>
<path d="M398.966 356.566L416.5 347.799L401.888 308.348L398.038 288.452C397.537 285.867 396.367 283.459 394.645 281.468C392.922 279.477 390.707 277.973 388.221 277.106C385.735 276.239 383.065 276.04 380.478 276.529C377.891 277.017 375.477 278.176 373.478 279.889C370.516 282.428 368.656 286.019 368.291 289.903C367.926 293.787 369.084 297.662 371.522 300.708L385.816 318.576L398.966 356.566Z" fill="#FFB6B6"/>
<path d="M416.5 340.493L393.121 352.182L410.863 407.774C412.137 411.766 414.421 415.361 417.493 418.21C420.566 421.06 424.322 423.067 428.399 424.038C433.425 425.234 438.702 424.799 443.464 422.795C448.227 420.791 452.227 417.322 454.885 412.892L501.931 332.253C505.265 326.696 506.295 320.056 504.799 313.751C503.303 307.446 499.402 301.975 493.927 298.508C490.983 296.644 487.679 295.42 484.23 294.916C480.781 294.413 477.265 294.641 473.911 295.587C470.556 296.532 467.438 298.173 464.76 300.403C462.082 302.633 459.903 305.402 458.366 308.53L429.65 369.716L416.5 340.493Z" fill="#3F3D56"/>
<path d="M164.481 269.666C188.734 269.666 208.395 250.005 208.395 225.752C208.395 201.499 188.734 181.839 164.481 181.839C140.228 181.839 120.567 201.499 120.567 225.752C120.567 250.005 140.228 269.666 164.481 269.666Z" fill="#A0616A"/>
<path d="M121.095 195.491C124.665 190.678 129.797 187.257 133.723 182.729C135.877 180.245 137.665 177.43 140.086 175.206C144.585 171.074 150.877 169.381 156.982 169.171C163.672 168.999 170.309 170.404 176.355 173.274C182.402 176.143 187.688 180.396 191.785 185.688C194.976 183.817 198.167 181.946 201.358 180.075C202.619 183.393 203.88 186.711 205.14 190.029C206.175 189.13 207.495 188.626 208.865 188.607C210.236 188.588 211.569 189.054 212.629 189.924C213.688 190.794 214.405 192.011 214.653 193.359C214.901 194.707 214.664 196.1 213.983 197.29C214.743 194.943 218.222 194.445 220.14 195.996C222.058 197.546 222.572 200.304 222.259 202.751C221.866 205.435 220.68 207.94 218.852 209.944C217.024 211.948 214.639 213.36 212.002 213.998C207.838 214.925 202.992 213.951 199.659 216.614C196.987 218.749 196.18 222.637 193.453 224.701C190.093 227.245 185.344 226.069 181.167 226.631C173.859 227.615 168.073 235.089 168.951 242.41C168.29 240.1 167.595 237.723 166.095 235.846C164.594 233.97 162.066 232.701 159.765 233.39C155.961 234.531 155.338 239.716 156.26 243.579C158.706 253.825 167.973 270.385 167.973 270.385C155.94 275.132 141.603 270.644 132.318 261.636C123.034 252.629 118.198 239.875 116.092 227.112C114.305 216.289 114.559 204.3 121.095 195.491Z" fill="#2F2E41"/>
<path d="M565.78 254.51C574.135 235.356 569.402 217.729 559.217 208.379V208.371C555.213 199.398 549.89 192.473 543.798 190.848C540.854 188.956 537.996 186.734 534.825 185.604C533.347 185.051 531.773 184.802 530.197 184.874C528.621 184.945 527.076 185.335 525.655 186.02L524.037 185.588C522.664 182.079 521.054 182.008 519.264 184.316C512.371 181.105 506.161 179.668 500.634 179.668C482.609 179.668 471.947 194.93 469.121 213.38L484.187 217.392L489.423 209.046L487.005 218.145L495.319 220.351C507.975 236.83 492.83 274.844 473.635 295.994C478.204 294.73 482.755 293.663 487.288 292.791L503.759 268.642L493.553 290.624C498.852 289.847 505.612 290.593 512.999 292.092C515.488 288.842 516.799 284.509 515.511 280.646C517.617 284.72 519.068 289.099 519.814 293.623C535.406 297.431 556.673 299.386 568.136 300.83C577.396 297.807 577.422 263.665 565.78 254.51Z" fill="#2F2E41"/>
<path d="M571.216 189.355C577.335 203.057 564.988 208.951 553.676 208.784C543.455 208.634 534.768 201.453 534.247 191.245C533.996 186.342 535.703 181.541 538.992 177.897C542.282 174.254 546.884 172.066 551.786 171.815C561.995 171.293 567.048 180.021 571.216 189.355Z" fill="#2F2E41"/>
<path d="M287.327 412.412L277.247 395.599L310.763 370.171L324.698 355.458C326.509 353.547 328.789 352.144 331.311 351.39C333.834 350.636 336.51 350.557 339.073 351.161C341.635 351.765 343.994 353.032 345.914 354.833C347.834 356.635 349.247 358.909 350.013 361.428C351.148 365.16 350.788 369.188 349.009 372.661C347.231 376.133 344.173 378.779 340.48 380.039L318.826 387.432L287.327 412.412Z" fill="#A0616A"/>
<path d="M294.612 411.857L278.918 424.937L274.687 428.462L274.192 428.87C273.101 429.411 272.002 429.945 270.895 430.471C267.582 432.049 264.227 433.549 260.83 434.97C251.892 438.708 242.722 441.863 233.376 444.414C231.601 444.901 229.819 445.364 228.029 445.804C226.938 446.071 225.839 446.338 224.74 446.589C224.049 446.754 223.35 446.911 222.651 447.06C221.804 447.249 220.956 447.437 220.108 447.61C219.221 447.798 218.334 447.979 217.446 448.151C215.059 445.88 213.159 443.147 211.86 440.119C210.562 437.09 209.893 433.829 209.894 430.534C209.894 430.322 209.894 430.102 209.902 429.883L212.422 365.247L213.537 336.599C213.708 330.12 216.407 323.966 221.056 319.45C225.705 314.935 231.935 312.417 238.416 312.434C239.17 312.434 239.916 312.473 240.654 312.544C241.187 313.235 241.682 313.949 242.161 314.671C243.464 316.603 245.223 319.657 247.295 323.488C248.151 325.066 249.054 326.777 250.004 328.591C250.577 329.682 255.523 345.117 260.336 360.881L258.216 377.345L254.385 407.021L270.102 396.705L281.172 389.435L282.483 391.625L285.898 397.325L292.493 408.316L294.612 411.857Z" fill="#3F3D56"/>
<path d="M286.008 393.384C286 394.719 285.969 396.03 285.898 397.325C285.734 400.898 285.32 404.456 284.657 407.971C283.574 413.874 281.641 419.588 278.918 424.937C278.557 425.651 278.173 426.358 277.78 427.049C276.767 427.582 275.739 428.101 274.71 428.619C274.538 428.705 274.365 428.791 274.192 428.87C269.819 431.045 265.365 433.078 260.83 434.97C251.892 438.708 242.722 441.863 233.376 444.415C231.601 444.901 229.819 445.365 228.029 445.804C224.536 446.668 221.008 447.45 217.446 448.152C202.949 451 188.209 452.43 173.435 452.422C172.453 452.422 171.48 452.415 170.498 452.407C170.2 452.407 169.902 452.399 169.595 452.391C168.732 452.375 167.837 452.36 166.926 452.336C149.467 451.853 132.121 449.353 115.236 444.886C113.894 444.532 112.556 444.166 111.224 443.787C98.3886 440.136 85.9035 435.349 73.9172 429.482C60.7435 402.373 63.2165 387.896 60.8299 355.017C65.7288 342.778 148.61 351.421 212.422 365.247C229.741 368.999 245.647 373.137 258.216 377.345C271.201 381.686 280.614 386.098 284.304 390.244C285.166 391.102 285.759 392.193 286.008 393.384Z" fill="#2F2E41"/>
<path opacity="0.2" d="M60.8345 360.646C60.7126 358.61 60.5763 356.508 60.4174 354.318C68.3781 334.44 281.992 369.635 285.595 392.685C285.585 394.799 285.495 396.85 285.343 398.852C276.616 376.101 73.6806 342.651 60.8345 360.646Z" fill="black"/>
</g>
<defs>
<clipPath id="clip0_18_328">
<rect width="691" height="452.422" fill="white"/>
</clipPath>
</defs>
</svg>
